<svg width="994" height="800" viewBox="0 0 994 800" fill="none" xmlns="http://www.w3.org/2000/svg">
<rect width="994" height="800" fill="#F5F5F5"/>
<g clip-path="url(#clip0_0_1)">
<path d="M618.525 586.597H617.747C617.733 586.496 617.704 586.407 617.66 586.329C617.616 586.249 617.56 586.182 617.491 586.126C617.422 586.071 617.343 586.028 617.253 585.998C617.164 585.969 617.068 585.954 616.964 585.954C616.776 585.954 616.612 586.001 616.472 586.094C616.332 586.187 616.224 586.321 616.147 586.499C616.07 586.675 616.032 586.89 616.032 587.142C616.032 587.401 616.07 587.619 616.147 587.795C616.225 587.972 616.334 588.105 616.474 588.195C616.613 588.285 616.775 588.33 616.958 588.33C617.061 588.33 617.157 588.316 617.244 588.289C617.333 588.262 617.412 588.222 617.48 588.17C617.549 588.117 617.606 588.052 617.651 587.976C617.697 587.901 617.729 587.814 617.747 587.717L618.525 587.721C618.504 587.888 618.454 588.049 618.374 588.204C618.294 588.357 618.187 588.495 618.052 588.617C617.918 588.738 617.759 588.834 617.573 588.905C617.388 588.975 617.179 589.01 616.946 589.01C616.622 589.01 616.332 588.936 616.076 588.79C615.821 588.643 615.62 588.43 615.472 588.152C615.326 587.874 615.252 587.537 615.252 587.142C615.252 586.745 615.327 586.408 615.476 586.13C615.625 585.852 615.827 585.64 616.083 585.494C616.339 585.347 616.626 585.274 616.946 585.274C617.157 585.274 617.352 585.304 617.532 585.363C617.713 585.422 617.873 585.508 618.013 585.622C618.153 585.734 618.266 585.872 618.354 586.036C618.443 586.199 618.5 586.386 618.525 586.597ZM619.062 588.96V586.233H619.795V586.709H619.823C619.873 586.539 619.956 586.411 620.074 586.325C620.191 586.237 620.326 586.194 620.479 586.194C620.516 586.194 620.557 586.196 620.601 586.201C620.645 586.205 620.683 586.212 620.716 586.22V586.891C620.681 586.881 620.632 586.871 620.569 586.863C620.506 586.855 620.449 586.851 620.397 586.851C620.286 586.851 620.186 586.875 620.099 586.923C620.012 586.971 619.943 587.037 619.893 587.122C619.843 587.208 619.818 587.306 619.818 587.417V588.96H619.062ZM622.223 589.013C621.943 589.013 621.701 588.956 621.499 588.843C621.298 588.728 621.143 588.566 621.034 588.356C620.925 588.146 620.87 587.896 620.87 587.609C620.87 587.328 620.925 587.082 621.034 586.87C621.143 586.658 621.296 586.493 621.494 586.375C621.693 586.256 621.926 586.197 622.193 586.197C622.373 586.197 622.541 586.226 622.696 586.284C622.852 586.341 622.988 586.427 623.104 586.542C623.221 586.656 623.312 586.801 623.378 586.975C623.443 587.148 623.475 587.35 623.475 587.582V587.79H621.172V587.321H622.763C622.763 587.212 622.74 587.116 622.692 587.032C622.645 586.948 622.579 586.882 622.495 586.835C622.412 586.786 622.316 586.762 622.206 586.762C622.091 586.762 621.989 586.788 621.9 586.842C621.813 586.894 621.744 586.964 621.694 587.053C621.645 587.141 621.619 587.238 621.618 587.346V587.792C621.618 587.927 621.643 588.043 621.693 588.141C621.743 588.24 621.815 588.315 621.907 588.369C622 588.422 622.109 588.449 622.236 588.449C622.32 588.449 622.397 588.437 622.467 588.413C622.537 588.389 622.596 588.354 622.646 588.307C622.696 588.259 622.734 588.201 622.76 588.133L623.459 588.179C623.424 588.347 623.351 588.494 623.241 588.619C623.132 588.743 622.991 588.84 622.818 588.91C622.647 588.979 622.448 589.013 622.223 589.013ZM624.747 589.011C624.573 589.011 624.417 588.981 624.281 588.921C624.145 588.859 624.037 588.769 623.958 588.649C623.88 588.529 623.841 588.378 623.841 588.198C623.841 588.047 623.869 587.92 623.924 587.817C623.98 587.714 624.056 587.631 624.152 587.568C624.248 587.505 624.357 587.458 624.478 587.426C624.602 587.394 624.731 587.371 624.866 587.358C625.024 587.342 625.152 587.326 625.249 587.312C625.346 587.297 625.417 587.274 625.46 587.245C625.504 587.215 625.526 587.171 625.526 587.113V587.103C625.526 586.99 625.491 586.903 625.419 586.842C625.35 586.78 625.25 586.749 625.121 586.749C624.985 586.749 624.877 586.78 624.796 586.84C624.716 586.899 624.662 586.974 624.636 587.064L623.937 587.007C623.972 586.841 624.042 586.698 624.146 586.577C624.251 586.455 624.385 586.362 624.549 586.297C624.715 586.23 624.907 586.197 625.125 586.197C625.276 586.197 625.421 586.215 625.56 586.25C625.699 586.286 625.823 586.341 625.931 586.416C626.04 586.49 626.126 586.586 626.188 586.703C626.251 586.819 626.282 586.958 626.282 587.121V588.96H625.565V588.582H625.544C625.5 588.667 625.441 588.742 625.368 588.807C625.295 588.871 625.206 588.922 625.103 588.958C625 588.994 624.881 589.011 624.747 589.011ZM624.963 588.489C625.074 588.489 625.173 588.468 625.258 588.424C625.343 588.379 625.41 588.318 625.459 588.243C625.507 588.167 625.531 588.081 625.531 587.985V587.696C625.508 587.711 625.475 587.725 625.434 587.738C625.393 587.75 625.348 587.761 625.297 587.772C625.246 587.782 625.195 587.79 625.144 587.799C625.093 587.806 625.047 587.812 625.006 587.818C624.917 587.831 624.839 587.852 624.773 587.88C624.707 587.909 624.655 587.947 624.619 587.996C624.582 588.043 624.564 588.102 624.564 588.173C624.564 588.276 624.601 588.355 624.676 588.41C624.751 588.463 624.847 588.489 624.963 588.489ZM628.32 586.233V586.801H626.677V586.233H628.32ZM627.05 585.579H627.807V588.122C627.807 588.192 627.817 588.246 627.839 588.285C627.86 588.323 627.89 588.35 627.927 588.365C627.967 588.381 628.012 588.388 628.062 588.388C628.098 588.388 628.133 588.385 628.169 588.379C628.204 588.372 628.232 588.367 628.251 588.363L628.37 588.926C628.332 588.938 628.278 588.952 628.21 588.967C628.141 588.984 628.058 588.994 627.959 588.997C627.777 589.004 627.617 588.98 627.48 588.924C627.344 588.869 627.238 588.782 627.162 588.665C627.086 588.548 627.049 588.4 627.05 588.221V585.579ZM630.026 589.013C629.746 589.013 629.504 588.956 629.302 588.843C629.101 588.728 628.945 588.566 628.837 588.356C628.728 588.146 628.673 587.896 628.673 587.609C628.673 587.328 628.728 587.082 628.837 586.87C628.945 586.658 629.099 586.493 629.296 586.375C629.495 586.256 629.728 586.197 629.996 586.197C630.176 586.197 630.343 586.226 630.498 586.284C630.655 586.341 630.791 586.427 630.907 586.542C631.024 586.656 631.115 586.801 631.18 586.975C631.245 587.148 631.278 587.35 631.278 587.582V587.79H628.975V587.321H630.566C630.566 587.212 630.542 587.116 630.495 587.032C630.448 586.948 630.382 586.882 630.298 586.835C630.215 586.786 630.119 586.762 630.008 586.762C629.894 586.762 629.792 586.788 629.703 586.842C629.615 586.894 629.547 586.964 629.497 587.053C629.447 587.141 629.422 587.238 629.421 587.346V587.792C629.421 587.927 629.446 588.043 629.495 588.141C629.546 588.24 629.618 588.315 629.71 588.369C629.802 588.422 629.912 588.449 630.039 588.449C630.123 588.449 630.2 588.437 630.269 588.413C630.339 588.389 630.399 588.354 630.449 588.307C630.498 588.259 630.536 588.201 630.562 588.133L631.262 588.179C631.226 588.347 631.154 588.494 631.044 588.619C630.935 588.743 630.794 588.84 630.621 588.91C630.449 588.979 630.251 589.013 630.026 589.013ZM632.777 589.004C632.569 589.004 632.382 588.951 632.214 588.845C632.047 588.737 631.914 588.579 631.816 588.371C631.719 588.161 631.67 587.904 631.67 587.6C631.67 587.287 631.721 587.028 631.821 586.82C631.922 586.612 632.056 586.456 632.223 586.353C632.391 586.249 632.575 586.197 632.775 586.197C632.927 586.197 633.055 586.223 633.157 586.275C633.259 586.326 633.342 586.39 633.405 586.467C633.469 586.543 633.518 586.617 633.551 586.691H633.574V585.324H634.328V588.96H633.583V588.523H633.551C633.515 588.599 633.465 588.674 633.4 588.749C633.336 588.822 633.252 588.883 633.149 588.932C633.048 588.98 632.923 589.004 632.777 589.004ZM633.016 588.402C633.138 588.402 633.241 588.369 633.325 588.303C633.41 588.236 633.476 588.141 633.521 588.021C633.567 587.9 633.59 587.759 633.59 587.596C633.59 587.434 633.567 587.293 633.522 587.174C633.477 587.054 633.412 586.962 633.327 586.897C633.242 586.832 633.138 586.799 633.016 586.799C632.892 586.799 632.787 586.833 632.702 586.9C632.617 586.968 632.552 587.061 632.508 587.181C632.465 587.3 632.443 587.439 632.443 587.596C632.443 587.755 632.465 587.895 632.508 588.017C632.553 588.138 632.618 588.233 632.702 588.301C632.787 588.369 632.892 588.402 633.016 588.402ZM636.122 588.96V585.324H636.878V586.691H636.901C636.934 586.617 636.982 586.543 637.045 586.467C637.109 586.39 637.192 586.326 637.294 586.275C637.397 586.223 637.524 586.197 637.677 586.197C637.876 586.197 638.059 586.249 638.228 586.353C638.396 586.456 638.53 586.612 638.631 586.82C638.731 587.028 638.782 587.287 638.782 587.6C638.782 587.904 638.732 588.161 638.634 588.371C638.537 588.579 638.405 588.737 638.236 588.845C638.07 588.951 637.882 589.004 637.675 589.004C637.529 589.004 637.404 588.98 637.301 588.932C637.199 588.883 637.115 588.822 637.05 588.749C636.985 588.674 636.936 588.599 636.901 588.523H636.867V588.96H636.122ZM636.862 587.596C636.862 587.759 636.885 587.9 636.93 588.021C636.975 588.141 637.04 588.236 637.125 588.303C637.21 588.369 637.314 588.402 637.436 588.402C637.559 588.402 637.663 588.369 637.748 588.301C637.833 588.233 637.898 588.138 637.942 588.017C637.987 587.895 638.009 587.755 638.009 587.596C638.009 587.439 637.987 587.3 637.943 587.181C637.9 587.061 637.835 586.968 637.75 586.9C637.665 586.833 637.56 586.799 637.436 586.799C637.313 586.799 637.208 586.832 637.123 586.897C637.039 586.962 636.975 587.054 636.93 587.174C636.885 587.293 636.862 587.434 636.862 587.596ZM639.665 589.983C639.569 589.983 639.479 589.975 639.395 589.96C639.313 589.945 639.244 589.927 639.189 589.905L639.36 589.34C639.449 589.367 639.529 589.382 639.6 589.384C639.672 589.387 639.734 589.37 639.786 589.335C639.839 589.299 639.883 589.239 639.916 589.154L639.96 589.038L638.982 586.233H639.777L640.342 588.236H640.37L640.94 586.233H641.741L640.681 589.255C640.63 589.402 640.561 589.529 640.473 589.638C640.387 589.748 640.277 589.833 640.145 589.892C640.012 589.953 639.852 589.983 639.665 589.983ZM643.299 588.96V585.324H644.755C645.023 585.324 645.246 585.363 645.425 585.443C645.604 585.522 645.738 585.632 645.828 585.773C645.918 585.913 645.963 586.074 645.963 586.256C645.963 586.398 645.934 586.523 645.878 586.63C645.821 586.737 645.743 586.825 645.643 586.893C645.545 586.961 645.432 587.009 645.306 587.037V587.073C645.444 587.078 645.574 587.118 645.695 587.19C645.817 587.262 645.915 587.363 645.991 587.493C646.067 587.622 646.105 587.776 646.105 587.955C646.105 588.148 646.057 588.32 645.961 588.472C645.866 588.622 645.726 588.741 645.54 588.829C645.354 588.916 645.125 588.96 644.853 588.96H643.299ZM644.068 588.331H644.695C644.909 588.331 645.066 588.291 645.164 588.209C645.262 588.126 645.311 588.016 645.311 587.879C645.311 587.778 645.287 587.689 645.238 587.612C645.19 587.535 645.121 587.475 645.031 587.431C644.942 587.387 644.836 587.366 644.713 587.366H644.068V588.331ZM644.068 586.845H644.638C644.744 586.845 644.837 586.827 644.919 586.79C645.002 586.752 645.067 586.699 645.114 586.63C645.163 586.562 645.187 586.48 645.187 586.384C645.187 586.252 645.14 586.146 645.047 586.066C644.954 585.985 644.823 585.945 644.652 585.945H644.068V586.845ZM649.947 587.142C649.947 587.538 649.872 587.876 649.721 588.154C649.572 588.432 649.368 588.645 649.11 588.791C648.854 588.937 648.565 589.01 648.244 589.01C647.921 589.01 647.631 588.936 647.374 588.79C647.117 588.643 646.914 588.43 646.765 588.152C646.616 587.874 646.541 587.537 646.541 587.142C646.541 586.745 646.616 586.408 646.765 586.13C646.914 585.852 647.117 585.64 647.374 585.494C647.631 585.347 647.921 585.274 648.244 585.274C648.565 585.274 648.854 585.347 649.11 585.494C649.368 585.64 649.572 585.852 649.721 586.13C649.872 586.408 649.947 586.745 649.947 587.142ZM649.167 587.142C649.167 586.885 649.129 586.668 649.052 586.492C648.976 586.316 648.869 586.182 648.73 586.091C648.592 586 648.43 585.954 648.244 585.954C648.058 585.954 647.896 586 647.757 586.091C647.619 586.182 647.511 586.316 647.434 586.492C647.359 586.668 647.321 586.885 647.321 587.142C647.321 587.399 647.359 587.615 647.434 587.792C647.511 587.968 647.619 588.102 647.757 588.193C647.896 588.284 648.058 588.33 648.244 588.33C648.43 588.33 648.592 588.284 648.73 588.193C648.869 588.102 648.976 587.968 649.052 587.792C649.129 587.615 649.167 587.399 649.167 587.142ZM647.702 584.951C647.601 584.951 647.513 584.915 647.44 584.844C647.366 584.772 647.33 584.687 647.33 584.589C647.33 584.488 647.366 584.403 647.44 584.333C647.513 584.263 647.601 584.228 647.702 584.228C647.805 584.228 647.892 584.263 647.963 584.333C648.036 584.403 648.072 584.488 648.072 584.589C648.072 584.687 648.036 584.772 647.963 584.844C647.892 584.915 647.805 584.951 647.702 584.951ZM648.789 584.951C648.687 584.951 648.6 584.915 648.526 584.844C648.453 584.772 648.416 584.687 648.416 584.589C648.416 584.488 648.453 584.403 648.526 584.333C648.6 584.263 648.687 584.228 648.789 584.228C648.892 584.228 648.979 584.263 649.05 584.333C649.122 584.403 649.158 584.488 649.158 584.589C649.158 584.687 649.122 584.772 649.05 584.844C648.979 584.915 648.892 584.951 648.789 584.951ZM653.725 586.597H652.947C652.933 586.496 652.904 586.407 652.86 586.329C652.816 586.249 652.76 586.182 652.691 586.126C652.623 586.071 652.543 586.028 652.453 585.998C652.365 585.969 652.268 585.954 652.164 585.954C651.976 585.954 651.812 586.001 651.672 586.094C651.532 586.187 651.424 586.321 651.347 586.499C651.27 586.675 651.232 586.89 651.232 587.142C651.232 587.401 651.27 587.619 651.347 587.795C651.425 587.972 651.534 588.105 651.674 588.195C651.814 588.285 651.975 588.33 652.159 588.33C652.262 588.33 652.357 588.316 652.445 588.289C652.533 588.262 652.612 588.222 652.681 588.17C652.749 588.117 652.806 588.052 652.851 587.976C652.897 587.901 652.929 587.814 652.947 587.717L653.725 587.721C653.705 587.888 653.654 588.049 653.574 588.204C653.494 588.357 653.387 588.495 653.252 588.617C653.119 588.738 652.959 588.834 652.773 588.905C652.588 588.975 652.379 589.01 652.146 589.01C651.822 589.01 651.532 588.936 651.276 588.79C651.022 588.643 650.82 588.43 650.672 588.152C650.526 587.874 650.452 587.537 650.452 587.142C650.452 586.745 650.527 586.408 650.676 586.13C650.825 585.852 651.028 585.64 651.283 585.494C651.539 585.347 651.827 585.274 652.146 585.274C652.357 585.274 652.552 585.304 652.732 585.363C652.913 585.422 653.074 585.508 653.213 585.622C653.353 585.734 653.467 585.872 653.554 586.036C653.643 586.199 653.7 586.386 653.725 586.597ZM654.276 588.96V585.324H655.045V586.927H655.093L656.401 585.324H657.323L655.973 586.952L657.339 588.96H656.419L655.423 587.465L655.045 587.927V588.96H654.276Z" fill="black"/>
<path d="M616.768 591.233V591.801H615.085V591.233H616.768ZM615.471 593.96V591.036C615.471 590.838 615.509 590.674 615.586 590.544C615.664 590.414 615.771 590.316 615.906 590.251C616.04 590.186 616.194 590.153 616.365 590.153C616.481 590.153 616.587 590.162 616.683 590.18C616.78 590.198 616.853 590.214 616.9 590.228L616.765 590.796C616.735 590.786 616.699 590.778 616.655 590.769C616.612 590.761 616.568 590.757 616.523 590.757C616.412 590.757 616.335 590.783 616.291 590.835C616.247 590.886 616.225 590.958 616.225 591.05V593.96H615.471ZM617.231 593.96V591.233H617.964V591.709H617.992C618.042 591.539 618.125 591.411 618.243 591.325C618.36 591.237 618.495 591.194 618.647 591.194C618.685 591.194 618.726 591.196 618.77 591.201C618.814 591.205 618.852 591.212 618.885 591.22V591.891C618.85 591.881 618.801 591.871 618.738 591.863C618.675 591.855 618.618 591.851 618.566 591.851C618.455 591.851 618.355 591.875 618.267 591.923C618.181 591.971 618.112 592.037 618.062 592.122C618.012 592.208 617.987 592.306 617.987 592.417V593.96H617.231ZM620.382 594.013C620.106 594.013 619.867 593.955 619.666 593.837C619.466 593.719 619.312 593.555 619.203 593.344C619.094 593.132 619.039 592.886 619.039 592.607C619.039 592.325 619.094 592.079 619.203 591.868C619.312 591.656 619.466 591.492 619.666 591.375C619.867 591.256 620.106 591.197 620.382 591.197C620.658 591.197 620.895 591.256 621.096 591.375C621.297 591.492 621.452 591.656 621.561 591.868C621.67 592.079 621.724 592.325 621.724 592.607C621.724 592.886 621.67 593.132 621.561 593.344C621.452 593.555 621.297 593.719 621.096 593.837C620.895 593.955 620.658 594.013 620.382 594.013ZM620.385 593.427C620.511 593.427 620.616 593.392 620.7 593.321C620.784 593.249 620.847 593.15 620.89 593.026C620.933 592.902 620.955 592.76 620.955 592.602C620.955 592.443 620.933 592.302 620.89 592.177C620.847 592.053 620.784 591.955 620.7 591.883C620.616 591.81 620.511 591.774 620.385 591.774C620.259 591.774 620.152 591.81 620.066 591.883C619.98 591.955 619.916 592.053 619.872 592.177C619.83 592.302 619.808 592.443 619.808 592.602C619.808 592.76 619.83 592.902 619.872 593.026C619.916 593.15 619.98 593.249 620.066 593.321C620.152 593.392 620.259 593.427 620.385 593.427ZM622.216 593.96V591.233H622.937V591.714H622.969C623.026 591.554 623.12 591.428 623.253 591.336C623.385 591.243 623.544 591.197 623.729 591.197C623.916 591.197 624.075 591.244 624.206 591.337C624.338 591.43 624.425 591.555 624.469 591.714H624.498C624.553 591.558 624.654 591.433 624.799 591.339C624.946 591.245 625.12 591.197 625.32 591.197C625.574 591.197 625.781 591.278 625.939 591.44C626.099 591.601 626.179 591.83 626.179 592.126V593.96H625.424V592.275C625.424 592.123 625.384 592.01 625.304 591.934C625.223 591.858 625.123 591.82 625.002 591.82C624.864 591.82 624.757 591.864 624.68 591.952C624.603 592.038 624.565 592.152 624.565 592.295V593.96H623.832V592.259C623.832 592.125 623.793 592.019 623.716 591.939C623.641 591.86 623.54 591.82 623.416 591.82C623.332 591.82 623.256 591.842 623.189 591.884C623.123 591.926 623.07 591.984 623.031 592.06C622.992 592.135 622.972 592.222 622.972 592.323V593.96H622.216ZM629.384 591.233V591.801H627.742V591.233H629.384ZM628.115 590.579H628.871V593.122C628.871 593.192 628.882 593.246 628.903 593.285C628.924 593.323 628.954 593.35 628.992 593.365C629.031 593.381 629.076 593.388 629.127 593.388C629.162 593.388 629.198 593.385 629.233 593.379C629.269 593.372 629.296 593.367 629.315 593.363L629.434 593.926C629.396 593.938 629.343 593.952 629.274 593.967C629.206 593.984 629.122 593.994 629.024 593.997C628.842 594.004 628.682 593.98 628.544 593.924C628.408 593.869 628.302 593.782 628.227 593.665C628.151 593.548 628.114 593.4 628.115 593.221V590.579ZM630.692 592.383V593.96H629.936V590.324H630.671V591.714H630.703C630.764 591.553 630.864 591.427 631.001 591.336C631.138 591.243 631.311 591.197 631.518 591.197C631.707 591.197 631.872 591.239 632.013 591.321C632.155 591.403 632.265 591.521 632.343 591.675C632.423 591.828 632.462 592.01 632.46 592.223V593.96H631.704V592.358C631.705 592.19 631.663 592.06 631.576 591.966C631.491 591.873 631.371 591.826 631.218 591.826C631.115 591.826 631.023 591.848 630.944 591.891C630.866 591.935 630.804 591.999 630.759 592.083C630.716 592.166 630.693 592.266 630.692 592.383ZM634.299 594.013C634.018 594.013 633.777 593.956 633.574 593.843C633.373 593.728 633.218 593.566 633.109 593.356C633 593.146 632.946 592.896 632.946 592.609C632.946 592.328 633 592.082 633.109 591.87C633.218 591.658 633.371 591.493 633.569 591.375C633.768 591.256 634.001 591.197 634.268 591.197C634.448 591.197 634.616 591.226 634.771 591.284C634.927 591.341 635.063 591.427 635.179 591.542C635.297 591.656 635.388 591.801 635.453 591.975C635.518 592.148 635.55 592.35 635.55 592.582V592.79H633.248V592.321H634.838C634.838 592.212 634.815 592.116 634.767 592.032C634.72 591.948 634.654 591.882 634.57 591.835C634.487 591.786 634.391 591.762 634.281 591.762C634.166 591.762 634.064 591.788 633.975 591.842C633.888 591.894 633.819 591.964 633.77 592.053C633.72 592.141 633.694 592.238 633.693 592.346V592.792C633.693 592.927 633.718 593.043 633.768 593.141C633.819 593.24 633.89 593.315 633.983 593.369C634.075 593.422 634.184 593.449 634.311 593.449C634.395 593.449 634.472 593.437 634.542 593.413C634.612 593.389 634.672 593.354 634.721 593.307C634.771 593.259 634.809 593.201 634.835 593.133L635.534 593.179C635.499 593.347 635.426 593.494 635.316 593.619C635.207 593.743 635.066 593.84 634.893 593.91C634.722 593.979 634.524 594.013 634.299 594.013ZM640.257 590.324V593.96H639.593L638.011 591.671H637.984V593.96H637.215V590.324H637.89L639.46 592.611H639.492V590.324H640.257ZM642.11 594.013C641.834 594.013 641.596 593.955 641.395 593.837C641.195 593.719 641.04 593.555 640.931 593.344C640.822 593.132 640.768 592.886 640.768 592.607C640.768 592.325 640.822 592.079 640.931 591.868C641.04 591.656 641.195 591.492 641.395 591.375C641.596 591.256 641.834 591.197 642.11 591.197C642.386 591.197 642.624 591.256 642.824 591.375C643.025 591.492 643.18 591.656 643.289 591.868C643.398 592.079 643.453 592.325 643.453 592.607C643.453 592.886 643.398 593.132 643.289 593.344C643.18 593.555 643.025 593.719 642.824 593.837C642.624 593.955 642.386 594.013 642.11 594.013ZM642.114 593.427C642.239 593.427 642.344 593.392 642.428 593.321C642.512 593.249 642.575 593.15 642.618 593.026C642.662 592.902 642.684 592.76 642.684 592.602C642.684 592.443 642.662 592.302 642.618 592.177C642.575 592.053 642.512 591.955 642.428 591.883C642.344 591.81 642.239 591.774 642.114 591.774C641.987 591.774 641.881 591.81 641.794 591.883C641.709 591.955 641.644 592.053 641.601 592.177C641.558 592.302 641.537 592.443 641.537 592.602C641.537 592.76 641.558 592.902 641.601 593.026C641.644 593.15 641.709 593.249 641.794 593.321C641.881 593.392 641.987 593.427 642.114 593.427ZM645.693 592.799V591.233H646.45V593.96H645.724V593.465H645.695C645.634 593.624 645.531 593.753 645.388 593.85C645.246 593.947 645.073 593.996 644.868 593.996C644.685 593.996 644.525 593.954 644.387 593.871C644.248 593.788 644.14 593.671 644.062 593.518C643.985 593.365 643.946 593.182 643.944 592.969V591.233H644.701V592.834C644.702 592.995 644.745 593.123 644.83 593.216C644.916 593.31 645.03 593.356 645.173 593.356C645.264 593.356 645.349 593.336 645.429 593.294C645.508 593.252 645.572 593.189 645.621 593.106C645.67 593.023 645.695 592.921 645.693 592.799ZM647.811 592.383V593.96H647.055V591.233H647.776V591.714H647.808C647.868 591.555 647.969 591.43 648.111 591.337C648.253 591.244 648.426 591.197 648.628 591.197C648.817 591.197 648.982 591.239 649.123 591.321C649.264 591.404 649.374 591.523 649.452 591.677C649.53 591.829 649.569 592.012 649.569 592.223V593.96H648.813V592.358C648.814 592.192 648.771 592.061 648.685 591.968C648.598 591.873 648.479 591.826 648.328 591.826C648.226 591.826 648.136 591.848 648.058 591.891C647.981 591.935 647.921 591.999 647.877 592.083C647.834 592.166 647.812 592.266 647.811 592.383ZM651.337 593.96V590.324H652.771C653.047 590.324 653.282 590.376 653.476 590.482C653.67 590.586 653.818 590.731 653.92 590.917C654.023 591.101 654.074 591.314 654.074 591.556C654.074 591.797 654.022 592.01 653.918 592.195C653.814 592.38 653.663 592.524 653.465 592.627C653.269 592.73 653.031 592.781 652.752 592.781H651.837V592.165H652.627C652.775 592.165 652.897 592.139 652.993 592.089C653.09 592.036 653.162 591.965 653.21 591.874C653.258 591.781 653.283 591.675 653.283 591.556C653.283 591.435 653.258 591.33 653.21 591.24C653.162 591.149 653.09 591.078 652.993 591.029C652.896 590.978 652.773 590.952 652.624 590.952H652.105V593.96H651.337ZM654.56 593.96V591.233H655.293V591.709H655.321C655.371 591.539 655.455 591.411 655.572 591.325C655.689 591.237 655.824 591.194 655.977 591.194C656.014 591.194 656.055 591.196 656.099 591.201C656.143 591.205 656.181 591.212 656.214 591.22V591.891C656.179 591.881 656.13 591.871 656.067 591.863C656.004 591.855 655.947 591.851 655.895 591.851C655.784 591.851 655.684 591.875 655.597 591.923C655.51 591.971 655.442 592.037 655.391 592.122C655.341 592.208 655.316 592.306 655.316 592.417V593.96H654.56ZM657.711 594.013C657.435 594.013 657.197 593.955 656.995 593.837C656.795 593.719 656.641 593.555 656.532 593.344C656.423 593.132 656.369 592.886 656.369 592.607C656.369 592.325 656.423 592.079 656.532 591.868C656.641 591.656 656.795 591.492 656.995 591.375C657.197 591.256 657.435 591.197 657.711 591.197C657.987 591.197 658.225 591.256 658.425 591.375C658.626 591.492 658.781 591.656 658.89 591.868C658.999 592.079 659.053 592.325 659.053 592.607C659.053 592.886 658.999 593.132 658.89 593.344C658.781 593.555 658.626 593.719 658.425 593.837C658.225 593.955 657.987 594.013 657.711 594.013ZM657.714 593.427C657.84 593.427 657.945 593.392 658.029 593.321C658.113 593.249 658.176 593.15 658.219 593.026C658.262 592.902 658.284 592.76 658.284 592.602C658.284 592.443 658.262 592.302 658.219 592.177C658.176 592.053 658.113 591.955 658.029 591.883C657.945 591.81 657.84 591.774 657.714 591.774C657.588 591.774 657.481 591.81 657.395 591.883C657.31 591.955 657.245 592.053 657.201 592.177C657.159 592.302 657.137 592.443 657.137 592.602C657.137 592.76 657.159 592.902 657.201 593.026C657.245 593.15 657.31 593.249 657.395 593.321C657.481 593.392 657.588 593.427 657.714 593.427ZM659.545 591.233H660.301V594.095C660.301 594.306 660.26 594.476 660.177 594.606C660.094 594.737 659.975 594.832 659.82 594.892C659.666 594.953 659.482 594.983 659.268 594.983C659.242 594.983 659.217 594.982 659.193 594.981C659.169 594.981 659.143 594.98 659.115 594.979V594.388C659.135 594.389 659.153 594.39 659.169 594.39C659.183 594.391 659.198 594.391 659.215 594.391C659.337 594.391 659.422 594.365 659.47 594.313C659.52 594.262 659.545 594.185 659.545 594.083V591.233ZM659.921 590.881C659.81 590.881 659.714 590.844 659.634 590.769C659.553 590.694 659.513 590.603 659.513 590.498C659.513 590.393 659.553 590.304 659.634 590.23C659.714 590.154 659.81 590.116 659.921 590.116C660.035 590.116 660.132 590.154 660.211 590.23C660.291 590.304 660.332 590.393 660.332 590.498C660.332 590.603 660.291 590.694 660.211 590.769C660.132 590.844 660.035 590.881 659.921 590.881ZM662.15 594.013C661.87 594.013 661.628 593.956 661.426 593.843C661.225 593.728 661.069 593.566 660.961 593.356C660.852 593.146 660.797 592.896 660.797 592.609C660.797 592.328 660.852 592.082 660.961 591.87C661.069 591.658 661.223 591.493 661.42 591.375C661.619 591.256 661.853 591.197 662.12 591.197C662.3 591.197 662.467 591.226 662.623 591.284C662.779 591.341 662.915 591.427 663.031 591.542C663.148 591.656 663.239 591.801 663.304 591.975C663.369 592.148 663.402 592.35 663.402 592.582V592.79H661.099V592.321H662.69C662.69 592.212 662.666 592.116 662.619 592.032C662.572 591.948 662.506 591.882 662.422 591.835C662.339 591.786 662.243 591.762 662.132 591.762C662.018 591.762 661.916 591.788 661.827 591.842C661.739 591.894 661.671 591.964 661.621 592.053C661.571 592.141 661.546 592.238 661.545 592.346V592.792C661.545 592.927 661.57 593.043 661.619 593.141C661.67 593.24 661.742 593.315 661.834 593.369C661.926 593.422 662.036 593.449 662.163 593.449C662.247 593.449 662.324 593.437 662.393 593.413C662.463 593.389 662.523 593.354 662.573 593.307C662.623 593.259 662.66 593.201 662.686 593.133L663.386 593.179C663.35 593.347 663.278 593.494 663.168 593.619C663.059 593.743 662.918 593.84 662.745 593.91C662.573 593.979 662.375 594.013 662.15 594.013ZM665.128 594.013C664.848 594.013 664.608 593.954 664.407 593.836C664.207 593.716 664.053 593.55 663.945 593.339C663.839 593.127 663.786 592.883 663.786 592.607C663.786 592.328 663.839 592.083 663.947 591.872C664.056 591.66 664.21 591.495 664.411 591.377C664.611 591.257 664.848 591.197 665.124 591.197C665.362 591.197 665.571 591.24 665.749 591.327C665.928 591.413 666.069 591.535 666.174 591.691C666.278 591.847 666.335 592.031 666.346 592.241H665.632C665.612 592.105 665.559 591.996 665.472 591.913C665.387 591.829 665.275 591.787 665.137 591.787C665.02 591.787 664.917 591.819 664.83 591.883C664.743 591.945 664.676 592.037 664.627 592.158C664.579 592.279 664.554 592.425 664.554 592.596C664.554 592.77 664.578 592.918 664.625 593.04C664.674 593.162 664.742 593.255 664.83 593.319C664.917 593.383 665.02 593.415 665.137 593.415C665.223 593.415 665.301 593.397 665.369 593.362C665.439 593.326 665.497 593.275 665.542 593.207C665.588 593.138 665.618 593.056 665.632 592.96H666.346C666.334 593.169 666.277 593.352 666.175 593.511C666.075 593.668 665.936 593.791 665.758 593.88C665.581 593.969 665.371 594.013 665.128 594.013ZM668.281 591.233V591.801H666.638V591.233H668.281ZM667.011 590.579H667.768V593.122C667.768 593.192 667.778 593.246 667.8 593.285C667.821 593.323 667.851 593.35 667.888 593.365C667.927 593.381 667.972 593.388 668.023 593.388C668.059 593.388 668.094 593.385 668.13 593.379C668.165 593.372 668.193 593.367 668.212 593.363L668.331 593.926C668.293 593.938 668.239 593.952 668.171 593.967C668.102 593.984 668.019 593.994 667.92 593.997C667.738 594.004 667.578 593.98 667.441 593.924C667.305 593.869 667.199 593.782 667.123 593.665C667.047 593.548 667.01 593.4 667.011 593.221V590.579Z" fill="black"/>
</g>
<g clip-path="url(#clip1_0_1)">
<rect x="98" y="63" width="640" height="649" fill="black"/>
<path d="M230.325 0C103.125 0 0 103.125 0 230.325V800H569.675C696.875 800 800 696.875 800 569.675V0H230.325ZM567.425 86.475C586.325 86.475 601.55 169.95 601.55 188.8C602.175 208.075 586.725 223.975 567.425 223.975C548.15 223.975 532.65 208.075 533.325 188.8C533.325 169.925 548.7 86.475 567.425 86.475ZM480.325 183.2C503.4 189.6 549.725 309 601.55 257.175C649.85 208.875 669.925 495.975 669.925 495.975L601.55 461.85C601.55 461.85 601.55 393.65 499.225 325.425C372.25 240.65 226.15 296.525 226.15 427.625C226.15 695.45 669.925 598.325 669.925 598.325C669.925 598.325 669.8 666.55 601.55 666.55H192.175C123.95 666.55 123.8 598.325 123.8 598.325V257.2C123.8 188.825 192.175 188.825 192.175 188.825H328.6C396.825 188.825 465.075 257.2 465.075 257.2C465.075 207.475 468.975 187.125 476 183.625C477.425 182.95 478.875 182.825 480.3 183.225L480.325 183.2Z" fill="black"/>
<path d="M518.5 400C453.052 400 400 346.948 400 281.5C400 216.052 346.948 163 281.5 163C216.052 163 163 216.052 163 281.5C163 346.948 216.052 400 281.5 400C346.948 400 400 453.052 400 518.5C400 583.948 453.052 637 518.5 637C583.948 637 637 583.948 637 518.5C637 453.052 583.948 400 518.5 400Z" fill="white"/>
</g>
<g clip-path="url(#clip2_0_1)">
<path d="M955.45 435.22C955.795 435.222 956.132 435.122 956.419 434.932C956.707 434.742 956.931 434.471 957.065 434.153C957.198 433.835 957.234 433.485 957.168 433.147C957.102 432.809 956.937 432.498 956.694 432.253C956.451 432.009 956.141 431.842 955.803 431.774C955.465 431.706 955.115 431.74 954.796 431.872C954.478 432.003 954.206 432.226 954.014 432.512C953.822 432.799 953.72 433.135 953.72 433.48C953.72 433.94 953.902 434.381 954.226 434.707C954.55 435.033 954.99 435.217 955.45 435.22ZM955.45 432.75C955.597 432.748 955.742 432.79 955.865 432.871C955.988 432.951 956.084 433.067 956.142 433.202C956.199 433.338 956.214 433.487 956.186 433.632C956.158 433.776 956.087 433.909 955.983 434.013C955.879 434.117 955.746 434.188 955.602 434.216C955.457 434.244 955.308 434.229 955.172 434.172C955.037 434.114 954.921 434.018 954.841 433.895C954.76 433.772 954.718 433.627 954.72 433.48C954.723 433.287 954.8 433.103 954.937 432.967C955.073 432.83 955.257 432.753 955.45 432.75Z" fill="black"/>
<path d="M971.3 435.22C971.644 435.22 971.981 435.118 972.267 434.927C972.553 434.736 972.776 434.464 972.908 434.146C973.039 433.828 973.074 433.478 973.007 433.141C972.939 432.803 972.774 432.493 972.53 432.25C972.287 432.006 971.977 431.841 971.639 431.773C971.302 431.706 970.952 431.741 970.634 431.872C970.316 432.004 970.044 432.227 969.853 432.513C969.662 432.799 969.56 433.136 969.56 433.48C969.56 433.941 969.743 434.384 970.07 434.71C970.396 435.037 970.839 435.22 971.3 435.22ZM971.3 432.75C971.447 432.75 971.59 432.794 971.712 432.875C971.834 432.957 971.929 433.073 971.985 433.209C972.04 433.345 972.054 433.494 972.025 433.638C971.996 433.782 971.924 433.914 971.82 434.017C971.715 434.12 971.582 434.19 971.438 434.217C971.294 434.244 971.145 434.228 971.01 434.171C970.875 434.113 970.76 434.017 970.68 433.894C970.6 433.771 970.558 433.627 970.56 433.48C970.56 433.383 970.579 433.288 970.617 433.198C970.654 433.109 970.708 433.028 970.777 432.96C970.846 432.892 970.928 432.839 971.018 432.803C971.107 432.767 971.203 432.749 971.3 432.75Z" fill="black"/>
<path d="M963.38 445.47C963.035 445.47 962.699 445.572 962.412 445.764C962.126 445.956 961.903 446.228 961.772 446.546C961.64 446.865 961.606 447.215 961.674 447.553C961.742 447.891 961.909 448.201 962.153 448.444C962.398 448.687 962.709 448.852 963.047 448.918C963.385 448.984 963.735 448.948 964.053 448.815C964.371 448.681 964.642 448.457 964.832 448.169C965.022 447.882 965.122 447.545 965.12 447.2C965.117 446.742 964.934 446.303 964.61 445.98C964.287 445.656 963.848 445.473 963.39 445.47H963.38ZM963.38 447.94C963.276 447.952 963.171 447.942 963.072 447.911C962.972 447.879 962.88 447.827 962.802 447.758C962.724 447.688 962.662 447.603 962.619 447.508C962.576 447.413 962.554 447.309 962.554 447.205C962.554 447.101 962.576 446.997 962.619 446.902C962.662 446.807 962.724 446.722 962.802 446.652C962.88 446.583 962.972 446.531 963.072 446.499C963.171 446.468 963.276 446.458 963.38 446.47C963.566 446.491 963.743 446.564 963.89 446.68C964.029 446.817 964.108 447.004 964.11 447.2C964.11 447.395 964.033 447.581 963.897 447.72C963.76 447.858 963.575 447.937 963.38 447.94Z" fill="black"/>
<path d="M973.76 438.54C973.749 438.495 973.733 438.451 973.71 438.41V438.35C973.667 438.296 973.617 438.249 973.56 438.21L968.37 435.21V429.21C968.386 429.141 968.386 429.069 968.37 429C968.345 428.951 968.311 428.907 968.27 428.87L963.7 425.12C963.611 425.043 963.497 425.001 963.38 425.001C963.263 425.001 963.149 425.043 963.06 425.12L958.6 428.82C958.549 428.867 958.517 428.931 958.51 429C958.496 429.059 958.496 429.121 958.51 429.18V435.18L953.32 438.18C953.263 438.219 953.213 438.266 953.17 438.32V438.38C953.147 438.421 953.131 438.465 953.12 438.51L952 444.25C951.981 444.366 952.002 444.485 952.06 444.587C952.119 444.689 952.21 444.768 952.32 444.81L957.76 446.81C957.816 446.82 957.874 446.82 957.93 446.81C958.018 446.811 958.105 446.786 958.18 446.74L963.37 443.74L968.55 446.74C968.625 446.786 968.712 446.811 968.8 446.81C968.86 446.82 968.92 446.82 968.98 446.81L974.41 444.81C974.521 444.772 974.614 444.695 974.675 444.595C974.735 444.494 974.758 444.376 974.74 444.26L973.76 438.54ZM972.09 438.54L968.33 439.93V436.35L972.09 438.54ZM959.92 440.63L963.38 438.63L967.38 440.94L968.14 445.37L959.92 440.63ZM962.92 433.78V437.78L958.92 440.09L954.66 438.52L962.92 433.78ZM967.37 439.78L963.92 437.78V433.15L967.37 430.27V439.78ZM963.38 426.15L967.05 429.21L963.38 432.26L959.7 429.26L963.38 426.15ZM959.38 430.27L962.5 432.84L959.42 434.62L959.38 430.27ZM953.83 439.27L958.36 441L957.55 445.71L953.06 444L953.83 439.27ZM958.57 445.34L959.25 441.39L962.34 443.17L958.57 445.34ZM969.17 445.63L968.39 441L972.88 439.35L973.69 444L969.17 445.63Z" fill="black"/>
</g>
<defs>
<clipPath id="clip0_0_1">
<rect width="329.43" height="422.45" fill="white" transform="translate(615 236)"/>
</clipPath>
<clipPath id="clip1_0_1">
<rect width="800" height="800" fill="white"/>
</clipPath>
<clipPath id="clip2_0_1">
<rect width="22.75" height="29.925" fill="white" transform="translate(952 425)"/>
</clipPath>
</defs>
</svg>
