<svg width="166" height="165" viewBox="0 0 166 165" fill="none" xmlns="http://www.w3.org/2000/svg">
<path d="M83.19 0.909993C88.42 0.859993 88.42 1.06999 88.42 1.43999C88.42 1.82999 88.44 2.34999 92.32 2.73999C96.23 3.06999 100.33 2.66999 104.42 2.15999C109.52 1.34999 114.63 0.399993 119.96 0.269993C125.29 0.139993 125.27 1.46999 125.27 2.98999C125.27 4.30999 125.29 5.69999 129.1 6.15999C132.82 6.69999 136.83 5.46999 140.74 4.21999C145.49 2.65999 150.23 0.909993 154.35 1.99999C157.9 3.64999 156.98 7.02999 155.93 10.7C154.98 13.88 154.07 17.12 155.49 19.96C156.72 23 158.81 22.77 160.8 22.56C163.14 22.3 165.21 22.07 165.37 27.12C165.37 32.32 163.87 37.44 162.56 42.49C161.57 46.6 160.72 50.68 161.01 54.66C161.39 58.56 162.31 58.59 163.15 58.63C164.04 58.66 164.78 58.66 164.65 63.99C164.58 69.26 164.26 74.34 164.09 79.37C164.06 83.45 164.14 87.52 164.57 91.35C164.59 92.48 164.59 93.59 164.6 94.67C163.81 89.45 163.68 84.39 163.68 79.35C163.8 75.29 164.04 71.2 163.91 67.34C163.86 63.39 163.22 63.37 162.5 63.34C161.45 63.34 160.26 63.27 159.56 57.99C158.92 52.64 159.94 47.54 161.09 42.47C162.16 38.37 163.33 34.28 163.15 30.48C162.87 26.74 161.23 26.84 159.42 26.98C156.95 27.24 154.34 27.51 152.65 23.2C150.43 19.42 151.53 15.4 152.5 11.65C153.16 8.86999 153.9 6.10999 151.1 4.89999C148.14 3.85999 144.34 5.19999 140.49 6.47999C135.72 7.88999 130.82 9.30999 125.78 8.36999C120.59 7.54999 120.59 5.73999 120.59 4.12999C120.57 2.92999 120.56 1.82999 116.63 1.77999C112.68 1.70999 108.59 2.43999 104.51 3.02999C99.41 3.65999 94.32 4.12999 89.02 3.43999C83.76 2.69999 83.74 2.02999 83.79 1.50999C83.76 1.20999 83.74 1.01999 79.88 0.899993C80.96 0.899993 82.1 0.919993 83.22 0.899993L83.19 0.909993ZM1.82001 69.82C2.58001 75.03 2.71001 80.1 2.72001 85.15C2.57001 89.21 2.37001 93.28 2.47001 97.18C2.54001 101.1 3.16001 101.11 3.88001 101.16C4.92001 101.16 6.13001 101.19 6.81001 106.51C7.47001 111.84 6.43001 116.94 5.30001 122.01C4.26001 126.07 3.08001 130.19 3.26001 133.99C3.52001 137.74 5.17001 137.64 6.98001 137.51C9.43001 137.26 12.06 136.97 13.75 141.28C15.94 145.1 14.83 149.11 13.85 152.88C13.18 155.68 12.45 158.42 15.23 159.64C18.19 160.66 22.02 159.31 25.85 158.06C30.6 156.63 35.49 155.23 40.57 156.13C45.78 156.94 45.76 158.76 45.75 160.39C45.77 161.59 45.77 162.68 49.7 162.74C53.63 162.81 57.76 162.08 61.85 161.46C66.95 160.85 72.03 160.39 77.34 161.05C82.6 161.81 82.58 162.5 82.6 162.96C82.6 163.29 82.58 163.47 86.45 163.6C85.37 163.6 84.26 163.58 83.2 163.58C77.94 163.63 77.89 163.43 77.9 163.05C77.92 162.64 77.9 162.16 74.02 161.77C70.09 161.42 66.01 161.82 61.89 162.35C56.81 163.16 51.76 164.09 46.42 164.23C41.11 164.36 41.04 163.04 41.06 161.55C41.06 160.23 41.06 158.82 37.26 158.34C33.53 157.83 29.53 159.03 25.59 160.31C20.84 161.87 16.17 163.57 12.03 162.5C8.49001 160.84 9.40001 157.46 10.44 153.81C11.41 150.62 12.31 147.39 10.9 144.53C9.67001 141.49 7.58001 141.7 5.62001 141.91C3.27001 142.19 1.21001 142.37 1.07001 137.32C1.07001 132.12 2.57001 127.04 3.87001 122C4.84001 117.89 5.71001 113.79 5.38001 109.84C5.03001 105.91 4.10001 105.89 3.28001 105.87C2.39001 105.82 1.65001 105.77 1.78001 100.48C1.85001 95.2 2.17001 90.16 2.34001 85.16C2.36001 81.05 2.27001 77 1.88001 73.13C1.86001 72.03 1.85001 70.93 1.85001 69.81L1.82001 69.82ZM1.64001 59.65C3.07001 64.87 3.56001 69.95 3.92001 75.03C4.02001 79.11 4.05001 83.16 4.63001 87.06C5.19001 90.96 6.09001 90.99 7.06001 91.04C8.39001 91.01 9.90001 91.01 11.24 96.34C12.57 101.66 11.9 106.75 11.07 111.84C10.28 115.9 9.36001 120.02 10.02 123.84C10.74 127.59 12.63 127.51 14.67 127.41C17.4 127.16 20.29 126.93 22.5 131.38C25.15 135.41 24.23 139.56 23.4 143.49C22.81 146.44 22.22 149.3 25.13 150.86C28.21 152.26 32.03 151.16 35.93 150.12C40.73 148.97 45.63 147.88 50.76 149.41C55.95 150.87 55.92 152.98 55.92 154.92C55.92 156.37 55.92 157.72 59.85 158.26C63.78 158.82 67.87 158.36 71.98 158C77.08 157.72 82.19 157.61 87.48 158.95C92.76 160.35 92.71 161.32 92.69 162.09C92.67 162.65 92.67 163.09 96.55 163.7C95.42 163.68 94.31 163.67 93.23 163.67C87.98 163.06 87.97 162.57 87.97 161.89C88 161.22 88 160.49 84.12 159.62C80.19 158.8 76.1 158.91 71.99 159.18C66.93 159.64 61.85 160.25 56.52 159.74C51.21 159.2 51.18 157.58 51.18 155.79C51.2 154.21 51.21 152.55 47.4 151.59C43.65 150.6 39.62 151.57 35.68 152.59C30.88 153.91 26.16 155.31 21.89 153.72C18.14 151.61 18.91 148.08 19.8 144.24C20.61 140.97 21.38 137.63 19.62 134.61C18.03 131.47 15.74 131.63 13.52 131.83C10.91 132.08 8.57001 132.21 7.82001 127.14C7.16001 121.94 8.33001 116.86 9.32001 111.81C10.03 107.73 10.62 103.62 9.80001 99.68C9.00001 95.73 7.81001 95.75 6.71001 95.73C5.53001 95.7 4.47001 95.66 3.95001 90.35C3.36001 85.09 3.37001 80.03 3.21001 75.01C2.98001 70.93 2.60001 66.83 1.73001 62.98C1.70001 61.89 1.68001 60.73 1.65001 59.62L1.64001 59.65ZM1.41001 49.37C3.48001 54.62 4.30001 59.72 4.96001 64.79C5.35001 68.89 5.68001 72.98 6.75001 76.88C7.80001 80.78 8.92001 80.78 10.14 80.78C11.82 80.78 13.63 80.78 15.65 86.1C17.65 91.43 17.31 96.51 16.78 101.61C16.25 105.69 15.61 109.82 16.75 113.65C17.95 117.42 20.07 117.34 22.32 117.25C25.34 117.05 28.5 116.87 31.25 121.46C34.34 125.7 33.63 129.97 32.94 134.06C32.48 137.15 31.97 140.18 35.03 142.09C38.22 143.87 42.1 142.98 46.01 142.17C50.88 141.32 55.81 140.51 60.97 142.68C66.18 144.82 66.18 147.24 66.13 149.49C66.11 151.2 66.11 152.76 70.03 153.82C73.94 154.87 78.09 154.69 82.2 154.61C87.31 154.66 92.44 154.87 97.74 156.88C103 158.95 102.99 160.22 102.95 161.31C102.93 162.12 102.9 162.77 106.75 163.88C105.65 163.85 104.53 163.83 103.43 163.8C98.17 162.55 98.17 161.76 98.22 160.79C98.25 159.92 98.27 158.93 94.37 157.58C90.46 156.25 86.36 156.1 82.22 156.08C77.11 156.19 72.04 156.46 66.72 155.27C61.44 154.07 61.39 152.14 61.43 150.04C61.45 148.25 61.46 146.32 57.63 144.89C53.85 143.44 49.82 144.15 45.84 144.94C40.99 145.93 36.24 147.06 31.82 144.97C27.86 142.42 28.48 138.7 29.22 134.72C29.88 131.31 30.49 127.88 28.38 124.72C26.42 121.45 23.89 121.59 21.48 121.76C18.59 121.96 15.95 122.11 14.56 117.01C13.26 111.79 14.1 106.68 14.77 101.63C15.2 97.52 15.53 93.4 14.21 89.47C12.89 85.54 11.45 85.55 10.13 85.55C8.62001 85.53 7.29001 85.53 6.09001 80.25C4.84001 74.99 4.51001 69.88 4.00001 64.83C3.49001 60.7 2.85001 56.6 1.50001 52.74C1.47001 51.62 1.45001 50.52 1.42001 49.37H1.41001ZM1.13001 39.09C3.88001 44.32 4.99001 49.42 6.01001 54.56C6.67001 58.66 7.23001 62.75 8.79001 66.65C10.33 70.55 11.73 70.55 13.21 70.58C15.17 70.51 17.32 70.53 20.02 75.86C22.68 81.17 22.65 86.26 22.47 91.41C22.22 95.47 21.83 99.59 23.44 103.44C25.1 107.24 27.48 107.19 29.98 107.13C33.28 106.93 36.72 106.8 39.98 111.56C43.53 116.02 43.02 120.41 42.51 124.69C42.15 127.93 41.72 131.12 44.94 133.38C48.26 135.52 52.17 134.86 56.14 134.29C61.04 133.7 65.99 133.19 71.18 136.02C76.41 138.78 76.41 141.55 76.41 144.12C76.36 146.08 76.36 147.92 80.27 149.47C84.18 151.02 88.31 151.1 92.45 151.28C97.56 151.66 102.66 152.18 107.95 154.88C113.23 157.61 113.23 159.21 113.21 160.61C113.16 161.66 113.13 162.57 117.01 164.16C115.88 164.13 114.76 164.11 113.64 164.08C108.4 162.14 108.41 161.04 108.45 159.78C108.47 158.63 108.5 157.43 104.62 155.55C100.71 153.72 96.56 153.31 92.44 153.03C87.36 152.82 82.25 152.77 76.92 150.91C71.63 149.04 71.64 146.78 71.63 144.38C71.66 142.29 71.7 140.12 67.85 138.24C64.03 136.3 59.97 136.74 55.96 137.3C51.09 138.01 46.26 138.88 41.69 136.25C37.52 133.26 38.06 129.32 38.6 125.19C39.09 121.69 39.57 118.15 37.12 114.84C34.77 111.45 32.02 111.53 29.37 111.67C26.22 111.83 23.29 111.93 21.25 106.82C19.29 101.59 19.82 96.47 20.15 91.4C20.31 87.3 20.41 83.19 18.59 79.26C16.76 75.34 15.07 75.33 13.48 75.33C11.67 75.33 10.01 75.33 8.15001 70.03C6.23001 64.75 5.57001 59.66 4.73001 54.58C3.97001 50.47 3.07001 46.39 1.21001 42.52C1.18001 41.4 1.16001 40.23 1.13001 39.11V39.09ZM1.00001 28.94C4.40001 34.17 5.82001 39.26 7.08001 44.32C7.98001 48.4 8.79001 52.5 10.84 56.41C12.88 60.31 14.54 60.31 16.3 60.34C18.62 60.34 21.1 60.37 24.47 65.67C27.81 70.99 28.07 76.07 28.18 81.15C28.16 85.23 28.03 89.34 30.12 93.24C32.26 97.06 34.87 96.99 37.62 96.96C41.22 96.85 44.94 96.73 48.72 101.63C52.73 106.3 52.37 110.83 52.02 115.25C51.76 118.66 51.5 122 54.86 124.6C58.31 127.1 62.23 126.67 66.19 126.31C71.14 126 76.11 125.78 81.32 129.24C86.58 132.65 86.6 135.71 86.57 138.63C86.59 140.87 86.6 142.99 90.53 145.03C94.44 147.07 98.52 147.4 102.62 147.83C107.73 148.49 112.8 149.33 118.09 152.68C123.37 156.07 123.38 158.01 123.38 159.76C123.41 161.09 123.41 162.31 127.33 164.37C126.18 164.35 125.06 164.34 123.96 164.3C118.7 161.72 118.7 160.29 118.68 158.66C118.7 157.26 118.66 155.75 114.77 153.4C110.84 151.1 106.8 150.44 102.65 149.91C97.59 149.41 92.49 149.04 87.18 146.49C81.89 143.96 81.87 141.37 81.85 138.61C81.88 136.27 81.85 133.84 78 131.47C74.17 129.05 70.12 129.32 66.08 129.61C61.18 130.04 56.33 130.63 51.61 127.49C47.2 124.03 47.6 119.9 47.98 115.61C48.34 112.02 48.64 108.34 45.84 104.9C43.13 101.38 40.17 101.48 37.27 101.54C33.82 101.64 30.59 101.75 27.93 96.59C25.32 91.34 25.51 86.19 25.56 81.16C25.48 77.08 25.3 72.97 22.99 69.02C20.67 65.1 18.7 65.12 16.84 65.09C14.67 65.04 12.7 65.06 10.15 59.78C7.57001 54.5 6.58001 49.35 5.48001 44.35C4.46001 40.25 3.36001 36.14 1.03001 32.27C1.01001 31.17 1.00001 30.07 0.980011 28.95L1.00001 28.94ZM1.39001 19.3C5.40001 24.52 6.95001 29.39 8.43001 34.35C9.50001 38.35 10.5 42.4 13.03 46.3C15.55 50.2 17.54 50.25 19.62 50.33C22.3 50.38 25.23 50.53 29.22 55.79C33.2 61.05 33.66 66.04 34.05 71.06C34.23 75.11 34.35 79.19 36.9 83.09C39.5 86.92 42.37 86.91 45.38 86.89C49.24 86.84 53.29 86.79 57.55 91.81C61.97 96.65 61.78 101.32 61.59 105.86C61.44 109.41 61.28 112.9 64.78 115.85C68.35 118.73 72.28 118.48 76.27 118.33C81.19 118.28 86.13 118.28 91.35 122.33C96.58 126.38 96.64 129.83 96.66 133.11C96.71 135.63 96.79 138.05 100.69 140.58C104.6 143.11 108.62 143.64 112.68 144.25C117.66 145.19 122.59 146.19 127.85 150.17C133.1 154.17 133.26 156.59 133.36 158.74C133.46 160.4 133.56 161.95 137.45 164.48C136.32 164.5 135.18 164.48 134.1 164.46C128.81 161.22 128.81 159.43 128.76 157.44C128.66 155.7 128.59 153.89 124.73 151.06C120.82 148.28 116.77 147.42 112.76 146.72C107.71 145.95 102.63 145.27 97.32 142.06C92.04 138.84 92.03 135.94 92.03 132.83C91.96 130.2 91.96 127.48 88.12 124.64C84.26 121.81 80.21 121.81 76.25 121.89C71.25 122.09 66.35 122.4 61.5 118.73C56.88 114.83 57.16 110.52 57.41 106.09C57.62 102.36 57.77 98.64 54.66 95.05C51.59 91.41 48.38 91.43 45.27 91.5C41.51 91.53 37.95 91.58 34.67 86.38C31.41 81.11 31.31 76.01 31.09 71.04C30.79 66.98 30.42 62.94 27.64 59.03C24.85 55.13 22.56 55.06 20.41 55C17.85 54.88 15.51 54.87 12.3 49.59C9.08001 44.29 7.81001 39.23 6.50001 34.29C5.30001 30.26 4.02001 26.28 1.21001 22.43C1.24001 21.38 1.29001 20.29 1.41001 19.3H1.39001ZM3.03001 10.94C7.58001 16.04 9.00001 20.45 10.41 25.06C11.58 28.89 12.66 32.75 15.64 36.63C18.63 40.46 21 40.66 23.4 40.86C26.66 41.12 30.11 41.49 34.66 46.64C39.18 51.79 39.72 56.5 40.2 61.33C40.58 65.26 40.84 69.23 43.83 73.11C46.87 76.93 50.03 76.98 53.3 77.01C57.49 77.04 61.83 77.09 66.49 82.13C71.24 87.08 71.18 91.79 71.13 96.46C71.06 100.13 70.98 103.76 74.58 107.04C78.25 110.23 82.19 110.18 86.15 110.2C90.98 110.3 95.82 110.43 100.93 115.02C106.06 119.58 106.24 123.49 106.42 127.19C106.5 130.04 106.62 132.78 110.48 135.79C114.36 138.77 118.29 139.43 122.2 140.18C126.87 141.13 131.47 142.11 136.6 146.63C141.75 151.19 142.21 154.25 142.65 156.99C142.85 159.06 143.08 161.01 146.94 164C145.99 164.13 144.98 164.25 143.93 164.28C138.67 160.41 138.47 158.13 138.19 155.63C137.99 153.49 137.76 151.24 133.93 148C130.1 144.76 126.25 143.87 122.37 143.03C117.5 142.14 112.6 141.27 107.31 137.42C102.07 133.55 101.95 130.26 101.84 126.73C101.76 123.8 101.68 120.76 97.88 117.5C94.06 114.24 90.1 114.09 86.12 114.03C81.22 114.01 76.32 114.11 71.36 109.93C66.54 105.6 66.67 101.15 66.79 96.54C66.89 92.74 66.94 88.94 63.52 85.29C60.15 81.59 56.7 81.57 53.36 81.56C49.28 81.56 45.42 81.54 41.52 76.33C37.62 71.08 37.31 66.1 36.88 61.19C36.44 57.26 35.94 53.37 32.72 49.52C29.48 45.69 26.82 45.49 24.32 45.32C21.31 45.12 18.52 44.96 14.67 39.69C10.81 34.41 9.42001 29.57 8.01001 24.81C6.73001 20.96 5.46001 17.24 2.22001 13.44C2.48001 12.62 2.73001 11.79 3.01001 10.94H3.03001ZM6.89001 4.76999C11.84 9.63999 12.86 13.39 14.01 17.36C14.85 20.63 15.87 24.17 19.26 27.96C22.65 31.73 25.44 32.07 28.45 32.6C32.3 33.16 36.37 33.8 41.32 38.69C46.25 43.58 46.7 47.89 47.17 52.31C47.47 55.96 47.79 59.8 51.2 63.58C54.6 67.35 58.07 67.4 61.64 67.55C66.13 67.68 70.75 67.76 75.68 72.68C80.61 77.58 80.61 82.27 80.61 87.01C80.61 90.79 80.61 94.55 84.28 98.05C87.96 101.54 91.83 101.61 95.64 101.65C100.31 101.82 104.86 102 109.75 106.95C114.63 111.9 114.99 116.26 115.31 120.44C115.62 123.75 115.84 126.87 119.62 130.26C123.4 133.65 127.05 134.34 130.52 134.9C134.76 135.71 138.77 136.46 143.64 141.42C148.52 146.37 149.46 150.12 150.25 153.63C150.97 156.41 151.43 158.85 155.23 162.24C154.38 162.52 153.55 162.78 152.73 163.05C147.57 158.59 147.01 155.68 146.53 152.62C145.87 149.79 145.23 146.91 141.55 143.36C137.88 139.77 134.53 139.06 131.09 138.46C126.5 137.52 121.93 136.65 116.74 132.22C111.59 127.78 111.32 123.99 111.13 120.08C110.85 116.71 110.62 113.27 106.97 109.68C103.27 106.11 99.54 105.94 95.76 105.85C90.93 105.7 86.16 105.64 81.13 101.04C76.21 96.35 76.21 91.74 76.25 87.04C76.27 83.21 76.27 79.37 72.65 75.74C69.07 72.07 65.38 72.02 61.75 71.94C57.41 71.87 53.18 71.79 48.75 66.66C44.29 61.48 43.88 56.69 43.32 52.02C42.97 48.4 42.55 44.83 39 41.14C35.42 37.45 32.26 37.06 29.17 36.58C25.7 36.22 22.36 35.82 17.94 30.67C13.49 25.49 12.2 21 10.8 16.59C9.88001 13.37 8.93001 10.16 5.34001 6.51999C5.78001 5.87999 6.24001 5.23999 6.90001 4.78999L6.89001 4.76999ZM13.61 1.48999C18.76 5.92999 19.3 8.84999 19.79 11.9C20.45 14.73 21.09 17.61 24.76 21.18C28.44 24.73 31.81 25.44 35.22 26.08C39.79 27.02 44.4 27.89 49.57 32.32C54.73 36.76 54.98 40.53 55.19 44.46C55.47 47.82 55.7 51.26 59.36 54.84C63.04 58.41 66.78 58.58 70.54 58.69C75.37 58.84 80.17 58.89 85.17 63.51C90.1 68.2 90.09 72.79 90.07 77.51C90.07 81.33 90.05 85.16 93.65 88.8C97.25 92.47 100.95 92.52 104.58 92.6C108.92 92.65 113.13 92.73 117.62 97.86C122.04 103.06 122.49 107.8 123 112.52C123.36 116.12 123.77 119.71 127.32 123.4C130.89 127.09 134.06 127.5 137.15 127.98C140.64 128.33 143.99 128.72 148.39 133.89C152.85 139.07 154.13 143.53 155.54 147.94C156.44 151.18 157.4 154.37 160.98 158.04C160.55 158.67 160.09 159.29 159.42 159.77C154.47 154.87 153.43 151.13 152.28 147.17C151.46 143.9 150.44 140.36 147.05 136.57C143.65 132.79 140.87 132.46 137.84 131.93C133.99 131.37 129.93 130.71 124.97 125.84C120.04 120.95 119.59 116.66 119.13 112.18C118.83 108.53 118.5 104.71 115.1 100.94C111.68 97.17 108.24 97.11 104.64 96.97C100.13 96.86 95.53 96.76 90.6 91.85C85.67 86.95 85.67 82.24 85.63 77.52C85.65 73.74 85.66 69.97 82 66.46C78.3 62.97 74.45 62.91 70.64 62.84C65.97 62.69 61.42 62.49 56.57 57.54C51.67 52.59 51.31 48.23 51 44.03C50.67 40.74 50.44 37.63 46.68 34.23C42.88 30.84 39.22 30.18 35.78 29.59C31.54 28.8 27.54 28.04 22.68 23.09C17.8 18.14 16.84 14.39 16.05 10.88C15.33 8.07999 14.85 5.64999 11.09 2.25999C11.91 1.99999 12.73 1.72999 13.59 1.46999L13.61 1.48999ZM22.37 0.219993C27.61 4.09999 27.81 6.35999 28.09 8.85999C28.29 11 28.53 13.29 32.36 16.53C36.18 19.75 40.04 20.63 43.92 21.48C48.75 22.39 53.69 23.24 58.96 27.11C64.22 30.96 64.32 34.27 64.45 37.79C64.53 40.72 64.63 43.76 68.43 47.04C72.23 50.32 76.21 50.41 80.15 50.51C85.05 50.51 89.96 50.45 94.93 54.62C99.76 58.93 99.6 63.39 99.48 68.01C99.4 71.79 99.37 75.59 102.77 79.25C106.16 82.94 109.59 82.98 112.96 82.97C117 82.95 120.88 82.99 124.81 88.2C128.69 93.46 129.02 98.4 129.43 103.34C129.86 107.31 130.35 111.17 133.56 115.04C136.81 118.86 139.48 119.06 141.99 119.22C144.98 119.4 147.79 119.6 151.64 124.86C155.52 130.12 156.87 134.94 158.3 139.73C159.58 143.58 160.85 147.3 164.1 151.1C163.82 151.96 163.56 152.8 163.31 153.6C158.72 148.5 157.31 144.07 155.91 139.47C154.74 135.64 153.66 131.78 150.67 127.92C147.68 124.04 145.34 123.86 142.93 123.68C139.66 123.42 136.2 123.05 131.64 117.92C127.13 112.75 126.59 108.05 126.1 103.23C125.77 99.25 125.49 95.28 122.5 91.43C119.46 87.6 116.29 87.55 113.03 87.51C108.8 87.48 104.48 87.44 99.81 82.41C95.06 77.46 95.11 72.75 95.14 68.09C95.21 64.4 95.32 60.77 91.72 57.51C88.07 54.29 84.07 54.35 80.13 54.34C75.31 54.23 70.45 54.09 65.38 49.52C60.25 44.95 60.07 41.01 59.87 37.31C59.76 34.48 59.66 31.75 55.79 28.75C51.91 25.75 47.96 25.08 44.09 24.31C39.4 23.37 34.8 22.42 29.67 17.88C24.52 13.32 24.05 10.28 23.64 7.47999C23.41 5.43999 23.2 3.49999 19.37 0.499993C20.32 0.389993 21.28 0.249993 22.36 0.219993H22.37ZM32.22 0.0199933C37.47 3.27999 37.43 5.03999 37.53 7.04999C37.61 8.80999 37.71 10.64 41.59 13.45C45.49 16.23 49.51 17.07 53.53 17.79C58.54 18.55 63.67 19.24 68.97 22.46C74.28 25.65 74.25 28.56 74.3 31.67C74.33 34.3 74.38 37.03 78.23 39.88C82.08 42.74 86.11 42.69 90.08 42.63C95.03 42.43 99.99 42.1 104.81 45.81C109.45 49.69 109.15 53.99 108.9 58.46C108.7 62.16 108.55 65.93 111.66 69.5C114.73 73.13 117.96 73.07 121.08 73.02C124.83 72.97 128.36 72.92 131.7 78.12C134.96 83.38 135.07 88.45 135.27 93.49C135.55 97.54 135.93 101.62 138.71 105.53C141.52 109.43 143.79 109.46 145.98 109.53C148.53 109.63 150.88 109.64 154.07 114.96C157.31 120.24 158.57 125.31 159.91 130.25C161.09 134.26 162.38 138.29 165.19 142.18C165.16 143.22 165.11 144.25 164.97 145.26C160.96 140.01 159.4 135.12 157.95 130.19C156.86 126.16 155.88 122.14 153.33 118.24C150.8 114.34 148.82 114.26 146.75 114.21C144.04 114.11 141.11 114 137.11 108.73C133.13 103.46 132.67 98.46 132.29 93.46C132.09 89.38 132.03 85.32 129.45 81.45C126.84 77.62 123.94 77.6 120.95 77.65C117.05 77.67 113.04 77.72 108.77 72.73C104.35 67.88 104.54 63.2 104.73 58.68C104.86 55.11 105.04 51.62 101.54 48.68C97.97 45.82 94.01 46.03 90.05 46.2C85.12 46.23 80.17 46.23 74.99 42.17C69.76 38.14 69.66 34.67 69.66 31.41C69.56 28.91 69.53 26.48 65.62 23.94C61.71 21.41 57.65 20.9 53.65 20.25C48.64 19.31 43.72 18.34 38.48 14.34C33.23 10.32 33.02 7.91999 32.94 5.74999C32.86 4.08999 32.76 2.55999 28.88 0.00999326C29.95 -0.0100067 31.08 0.00999326 32.23 0.0299933L32.22 0.0199933ZM42.36 0.189993C47.6 2.78999 47.57 4.20999 47.6 5.81999C47.62 7.22999 47.63 8.74999 51.51 11.1C55.42 13.4 59.53 14.05 63.63 14.57C68.68 15.1 73.81 15.46 79.13 18.01C84.42 20.55 84.41 23.14 84.42 25.88C84.42 28.23 84.45 30.67 88.3 33.05C92.13 35.47 96.18 35.22 100.17 34.93C105.09 34.49 109.98 33.89 114.67 37.07C119.09 40.51 118.7 44.62 118.3 48.9C117.96 52.52 117.66 56.19 120.45 59.65C123.18 63.17 126.16 63.06 129.03 62.97C132.46 62.85 135.7 62.76 138.4 67.92C141.01 73.17 140.82 78.29 140.77 83.35C140.85 87.45 141.02 91.59 143.32 95.53C145.65 99.44 147.59 99.44 149.47 99.44C151.62 99.47 153.63 99.46 156.16 104.77C158.74 110.05 159.73 115.15 160.83 120.2C161.85 124.31 162.98 128.41 165.32 132.31C165.34 133.4 165.35 134.51 165.37 135.62C161.95 130.37 160.52 125.29 159.25 120.22C158.35 116.11 157.56 112.03 155.49 108.13C153.47 104.2 151.78 104.2 150.05 104.2C147.7 104.2 145.22 104.17 141.85 98.87C138.51 93.55 138.25 88.46 138.15 83.37C138.17 79.26 138.32 75.14 136.21 71.29C134.06 67.46 131.44 67.49 128.7 67.57C125.08 67.67 121.35 67.77 117.57 62.88C113.58 58.21 113.92 53.65 114.27 49.27C114.52 45.86 114.81 42.51 111.46 39.91C108.01 37.39 104.04 37.84 100.12 38.2C95.14 38.5 90.14 38.73 84.96 35.25C79.7 31.83 79.7 28.75 79.75 25.84C79.7 23.62 79.68 21.51 75.79 19.46C71.86 17.42 67.75 17.11 63.67 16.68C58.54 15.99 53.46 15.15 48.17 11.79C42.89 8.39999 42.88 6.46999 42.91 4.70999C42.89 3.37999 42.89 2.15999 39 0.119993C40.1 0.139993 41.22 0.169993 42.37 0.189993H42.36ZM52.67 0.449993C57.88 2.38999 57.83 3.47999 57.83 4.75999C57.8 5.85999 57.78 7.10999 61.68 8.96999C65.58 10.8 69.72 11.17 73.85 11.49C78.93 11.69 84.08 11.75 89.39 13.63C94.7 15.49 94.65 17.74 94.65 20.18C94.63 22.24 94.65 24.39 98.48 26.32C102.28 28.25 106.34 27.77 110.33 27.26C115.18 26.54 120.08 25.67 124.6 28.31C128.81 31.31 128.25 35.2 127.71 39.35C127.2 42.85 126.76 46.41 129.22 49.7C131.56 53.11 134.33 52.97 136.98 52.84C140.1 52.69 143.06 52.58 145.12 57.71C147.06 62.96 146.55 68.03 146.2 73.11C146.02 77.24 145.95 81.35 147.76 85.29C149.59 89.22 151.28 89.22 152.86 89.2C154.68 89.22 156.36 89.22 158.2 94.53C160.12 99.81 160.8 104.88 161.62 109.93C162.41 114.08 163.28 118.19 165.15 122.06C165.18 123.23 165.22 124.33 165.25 125.45C162.49 120.2 161.34 115.1 160.37 109.97C159.7 105.87 159.14 101.78 157.56 97.89C156.02 93.98 154.63 93.96 153.15 93.96C151.15 94.01 149.02 93.99 146.33 88.66C143.67 83.34 143.68 78.25 143.86 73.14C144.14 69.01 144.53 64.91 142.92 61.05C141.24 57.27 138.86 57.32 136.34 57.42C133.04 57.58 129.62 57.72 126.34 52.96C122.77 48.5 123.3 44.11 123.79 39.86C124.15 36.6 124.56 33.41 121.36 31.15C118.02 29.03 114.09 29.69 110.16 30.26C105.24 30.84 100.26 31.35 95.12 28.5C89.87 25.72 89.87 22.99 89.91 20.4C89.89 18.46 89.93 16.6 86 15.07C82.09 13.52 77.94 13.44 73.85 13.24C68.72 12.88 63.61 12.33 58.31 9.63999C53.02 6.90999 53.03 5.32999 53.1 3.89999C53.1 2.84999 53.15 1.92999 49.27 0.359993C50.37 0.389993 51.49 0.429993 52.66 0.439993L52.67 0.449993ZM62.9 0.699993C68.13 1.96999 68.11 2.75999 68.06 3.70999C68.06 4.57999 68.03 5.58999 71.92 6.92999C75.83 8.24999 79.98 8.37999 84.05 8.42999C89.16 8.31999 94.27 8.03999 99.59 9.23999C104.9 10.43 104.88 12.37 104.87 14.46C104.85 16.29 104.87 18.18 108.68 19.63C112.44 21.09 116.49 20.37 120.47 19.58C125.3 18.59 130.1 17.46 134.51 19.56C138.47 22.11 137.81 25.84 137.11 29.79C136.45 33.18 135.86 36.62 137.95 39.78C139.94 43.06 142.46 42.91 144.89 42.74C147.77 42.56 150.42 42.38 151.81 47.5C153.13 52.71 152.29 57.82 151.61 62.87C151.17 67 150.82 71.11 152.12 75.06C153.48 78.96 154.92 78.96 156.23 78.97C157.73 79 159.09 78.99 160.27 84.29C161.52 89.55 161.86 94.64 162.36 99.71C162.89 103.82 163.49 107.92 164.89 111.77C164.91 112.92 164.94 114.02 164.97 115.14C162.87 109.89 162.04 104.82 161.4 99.76C160.99 95.65 160.68 91.55 159.59 87.67C158.55 83.74 157.42 83.74 156.2 83.76C154.52 83.78 152.71 83.74 150.68 78.43C148.69 73.1 149.05 68 149.58 62.93C150.1 58.8 150.75 54.69 149.61 50.85C148.39 47.1 146.27 47.16 144.02 47.28C140.96 47.48 137.82 47.64 135.08 43.05C131.97 38.81 132.68 34.54 133.37 30.48C133.8 27.39 134.32 24.33 131.25 22.43C128.06 20.65 124.16 21.56 120.3 22.35C115.38 23.22 110.45 24.01 105.34 21.82C100.11 19.68 100.11 17.28 100.18 15.01C100.15 13.33 100.15 11.73 96.23 10.68C92.3 9.63999 88.18 9.83999 84.11 9.88999C78.95 9.83999 73.85 9.63999 68.56 7.61999C63.28 5.54999 63.3 4.27999 63.36 3.18999C63.34 2.39999 63.38 1.70999 59.51 0.619993C60.61 0.649993 61.73 0.689993 62.88 0.699993H62.9ZM73.08 0.829993C78.29 1.45999 78.31 1.96999 78.31 2.62999C78.29 3.26999 78.28 4.00999 82.16 4.86999C86.06 5.70999 90.2 5.57999 94.29 5.32999C99.39 4.86999 104.47 4.25999 109.78 4.79999C115.11 5.30999 115.11 6.95999 115.09 8.74999C115.09 10.33 115.09 11.97 118.89 12.91C122.65 13.91 126.68 12.94 130.63 11.92C135.41 10.64 140.18 9.19999 144.44 10.8C148.19 12.91 147.42 16.43 146.51 20.24C145.72 23.52 144.96 26.87 146.71 29.87C148.34 33.01 150.62 32.83 152.84 32.63C155.44 32.38 157.79 32.27 158.58 37.34C159.24 42.54 158.07 47.59 157.04 52.66C156.35 56.76 155.76 60.87 156.56 64.83C157.4 68.75 158.58 68.75 159.65 68.75C160.87 68.78 161.92 68.83 162.45 74.16C163.04 79.43 163.03 84.44 163.19 89.46C163.42 93.57 163.78 97.67 164.69 101.52C164.71 102.67 164.74 103.77 164.76 104.88C163.33 99.65 162.85 94.56 162.51 89.48C162.36 85.42 162.33 81.34 161.74 77.45C161.2 73.52 160.31 73.52 159.34 73.47C157.98 73.52 156.5 73.47 155.13 68.17C153.8 62.84 154.49 57.75 155.31 52.67C156.13 48.56 157.04 44.46 156.38 40.64C155.64 36.91 153.75 36.99 151.71 37.09C148.96 37.34 146.07 37.57 143.85 33.12C141.2 29.09 142.12 24.96 142.93 21.06C143.51 18.1 144.12 15.22 141.2 13.65C138.12 12.25 134.28 13.37 130.41 14.39C125.59 15.54 120.64 16.64 115.56 15.08C110.35 13.62 110.38 11.51 110.4 9.58999C110.4 8.13999 110.38 6.80999 106.47 6.22999C102.54 5.68999 98.41 6.15999 94.34 6.48999C89.23 6.76999 84.1 6.88999 78.8 5.53999C73.54 4.13999 73.57 3.18999 73.62 2.39999C73.6 1.83999 73.62 1.39999 69.76 0.809993C70.86 0.829993 71.96 0.829993 73.1 0.829993H73.08Z" fill="black"/>
</svg>
