
<svg width="835" height="835" viewBox="0 0 835 835" fill="none" xmlns="http://www.w3.org/2000/svg">
<g clip-path="url(#clip0_2_3)">
<rect x="102.287" y="65.7562" width="668" height="677.394" fill="black"/>
<path d="M240.402 0C107.637 0 0 107.637 0 240.402V835H594.598C727.363 835 835 727.363 835 594.598V0H240.402ZM592.25 90.2583C611.977 90.2583 627.868 177.385 627.868 197.06C628.52 217.178 612.394 233.774 592.25 233.774C572.132 233.774 555.953 217.178 556.658 197.06C556.658 177.359 572.706 90.2583 592.25 90.2583ZM501.339 191.215C525.424 197.895 573.775 322.519 627.868 268.426C678.281 218.013 699.234 517.674 699.234 517.674L627.868 482.056C627.868 482.056 627.868 410.872 521.066 339.662C388.536 251.178 236.044 309.498 236.044 446.334C236.044 725.876 699.234 624.502 699.234 624.502C699.234 624.502 699.104 695.712 627.868 695.712H200.583C129.373 695.712 129.216 624.502 129.216 624.502V268.453C129.216 197.086 200.583 197.086 200.583 197.086H342.976C414.186 197.086 485.422 268.453 485.422 268.453C485.422 216.552 489.493 195.312 496.825 191.659C498.312 190.954 499.826 190.824 501.313 191.241L501.339 191.215Z" fill="black"/>
<path d="M541.184 417.5C472.873 417.5 417.5 362.126 417.5 293.816C417.5 225.505 362.126 170.131 293.816 170.131C225.505 170.131 170.131 225.505 170.131 293.816C170.131 362.126 225.505 417.5 293.816 417.5C362.126 417.5 417.5 472.873 417.5 541.184C417.5 609.495 472.873 664.869 541.184 664.869C609.495 664.869 664.869 609.495 664.869 541.184C664.869 472.873 609.495 417.5 541.184 417.5Z" fill="white"/>
</g>
<defs>
<clipPath id="clip0_2_3">
<rect width="835" height="835" fill="white"/>
</clipPath>
</defs>
</svg>
