<svg width="354" height="355" viewBox="0 0 354 355" fill="none" xmlns="http://www.w3.org/2000/svg">
<path d="M177 0.0999985C142.009 0.0999985 107.804 10.4867 78.7104 29.9467C49.6166 49.4067 26.9407 77.066 13.5503 109.427C0.159908 141.788 -3.34363 177.396 3.48274 211.75C10.3091 246.105 27.1588 277.661 51.901 302.429C76.6433 327.197 108.167 344.064 142.485 350.897C176.804 357.731 212.376 354.223 244.703 340.819C277.03 327.415 304.661 304.715 324.101 275.591C343.541 246.468 353.917 212.227 353.917 177.2C353.917 130.23 335.277 85.1841 302.099 51.9714C268.921 18.7587 223.921 0.0999985 177 0.0999985ZM177 322.1C148.371 322.1 120.385 313.602 96.5812 297.68C72.7772 281.758 54.2242 259.128 43.2684 232.651C32.3127 206.174 29.4461 177.039 35.0313 148.931C40.6165 120.824 54.4026 95.0049 74.6463 74.7402C94.8899 54.4756 120.682 40.6752 148.761 35.0842C176.839 29.4932 205.944 32.3627 232.393 43.3299C258.843 54.297 281.45 72.8692 297.355 96.6979C313.261 120.527 321.75 148.541 321.75 177.2C321.75 215.63 306.5 252.486 279.354 279.66C252.208 306.834 215.39 322.1 177 322.1Z" fill="white"/>
<path d="M289.583 161.1H225.25C222.28 161.109 219.37 161.941 216.844 163.504C214.317 165.067 212.272 167.3 210.936 169.955L198.069 195.393L177 108.936C176.199 105.762 174.449 102.907 171.986 100.754C169.522 98.6003 166.461 97.2498 163.211 96.8825C159.961 96.5151 156.677 97.1484 153.795 98.6979C150.914 100.247 148.573 102.639 147.085 105.555L118.778 161.1H64.4167C60.1511 161.1 56.0602 162.796 53.044 165.816C50.0278 168.835 48.3333 172.93 48.3333 177.2C48.3333 181.47 50.0278 185.565 53.044 188.584C56.0602 191.604 60.1511 193.3 64.4167 193.3H128.75C131.72 193.291 134.63 192.459 137.156 190.896C139.683 189.333 141.728 187.1 143.064 184.445L155.931 159.007L177 245.464C177.8 248.649 179.554 251.512 182.026 253.67C184.499 255.829 187.571 257.178 190.832 257.539H193.083C196.053 257.53 198.963 256.698 201.49 255.135C204.016 253.572 206.061 251.339 207.398 248.684L235.222 193.3H289.583C293.849 193.3 297.94 191.604 300.956 188.584C303.972 185.565 305.667 181.47 305.667 177.2C305.667 172.93 303.972 168.835 300.956 165.816C297.94 162.796 293.849 161.1 289.583 161.1Z" fill="white"/>
</svg>
