<svg xmlns="http://www.w3.org/2000/svg"
 viewBox="0 0 640 640"
 preserveAspectRatio="xMidYMid meet">
<g transform="translate(0,640) scale(0.1,-0.1)"
fill="currentColor" stroke="none">
<path d="M1660 6389 c-319 -33 -622 -148 -890 -337 -122 -86 -336 -300 -422
-422 -194 -275 -304 -571 -338 -909 -6 -67 -10 -910 -10 -2412 l0 -2309 2309
0 c1502 0 2345 4 2412 10 448 44 819 219 1134 535 316 315 491 686 535 1134 6
67 10 910 10 2412 l0 2309 -2327 -1 c-1281 -1 -2366 -6 -2413 -10z m2929 -705
c113 -94 259 -707 211 -879 -17 -59 -85 -136 -147 -165 -58 -28 -159 -30 -215
-6 -80 35 -140 105 -162 190 -18 67 -10 153 31 361 62 318 154 525 233 525 10
0 32 -12 49 -26z m-710 -768 c42 -32 73 -68 216 -261 65 -88 159 -201 209
-251 185 -184 334 -209 481 -81 67 59 91 70 130 63 149 -28 284 -494 385
-1331 20 -164 60 -570 60 -607 0 -14 -53 9 -274 119 l-274 137 -7 50 c-17 134
-106 332 -223 496 -136 192 -429 452 -675 599 -553 331 -1174 356 -1617 65
-96 -63 -233 -199 -295 -293 -67 -102 -122 -235 -153 -366 -22 -94 -25 -134
-26 -280 0 -291 55 -514 181 -727 363 -610 1316 -870 2688 -732 171 17 467 59
568 80 112 23 110 24 102 -43 -22 -184 -124 -347 -263 -421 -124 -66 1 -62
-1917 -62 -1541 0 -1748 2 -1800 16 -172 44 -288 156 -352 339 l-28 80 0 1485
c0 1425 1 1487 19 1540 60 177 188 291 384 341 70 18 115 19 692 19 679 0 709
-2 876 -61 224 -78 528 -268 712 -443 l42 -40 0 116 c0 225 29 409 71 454 28
30 47 30 88 0z"/>
</g>
</svg>