<svg width="835" height="835" viewBox="0 0 835 835" fill="none" xmlns="http://www.w3.org/2000/svg">
<path fill-rule="evenodd" clip-rule="evenodd" d="M225 0C100.736 0 0 100.736 0 225V835H610C734.264 835 835 734.264 835 610V0H225ZM417.5 293.816C417.5 362.126 472.873 417.5 541.184 417.5C609.495 417.5 664.869 472.874 664.869 541.184C664.869 609.495 609.495 664.869 541.184 664.869C472.873 664.869 417.5 609.495 417.5 541.184C417.5 472.874 362.126 417.5 293.816 417.5C225.505 417.5 170.131 362.126 170.131 293.816C170.131 225.505 225.505 170.131 293.816 170.131C362.126 170.131 417.5 225.505 417.5 293.816Z" fill="black"/>
</svg>
