<svg xmlns="http://www.w3.org/2000/svg" viewBox="0 0 100 100">
  <!-- Clean, professional oscillator-focused design -->
  <defs>
    <linearGradient id="bgGradient" x1="0%" y1="0%" x2="100%" y2="100%">
      <stop offset="0%" stop-color="#4338CA" />
      <stop offset="100%" stop-color="#6366F1" />
    </linearGradient>
  </defs>
  
  <!-- Main circular background -->
  <circle cx="50" cy="50" r="45" fill="url(#bgGradient)" />
  
  <!-- Professional waveform representing relaxation oscillator -->
  <path d="M26,50 L34,50 L34,35 L45,35 L45,65 L55,65 L55,35 L66,35 L66,50 L74,50" 
        fill="none" stroke="white" stroke-width="3" stroke-linecap="round" stroke-linejoin="round" />
  
  <!-- Subtle circular element representing computing cycles -->
  <circle cx="50" cy="50" r="30" fill="none" stroke="white" stroke-width="1" stroke-opacity="0.7" />
  
  <!-- Key nodes at wave transitions -->
  <circle cx="34" cy="35" r="3.5" fill="white" />
  <circle cx="45" cy="65" r="3.5" fill="white" />
  <circle cx="55" cy="35" r="3.5" fill="white" />
  <circle cx="66" cy="50" r="3.5" fill="white" />
  
  <!-- Digital computation dots pattern -->
  <circle cx="50" cy="20" r="2" fill="white" opacity="0.8" />
  <circle cx="60" cy="22" r="2" fill="white" opacity="0.8" />
  <circle cx="70" cy="27" r="2" fill="white" opacity="0.8" />
  <circle cx="77" cy="35" r="2" fill="white" opacity="0.8" />
  <circle cx="80" cy="45" r="2" fill="white" opacity="0.8" />
  <circle cx="80" cy="55" r="2" fill="white" opacity="0.8" />
  <circle cx="77" cy="65" r="2" fill="white" opacity="0.8" />
  <circle cx="70" cy="73" r="2" fill="white" opacity="0.8" />
  <circle cx="60" cy="78" r="2" fill="white" opacity="0.8" />
  <circle cx="50" cy="80" r="2" fill="white" opacity="0.8" />
  <circle cx="40" cy="78" r="2" fill="white" opacity="0.8" />
  <circle cx="30" cy="73" r="2" fill="white" opacity="0.8" />
  <circle cx="23" cy="65" r="2" fill="white" opacity="0.8" />
  <circle cx="20" cy="55" r="2" fill="white" opacity="0.8" />
  <circle cx="20" cy="45" r="2" fill="white" opacity="0.8" />
  <circle cx="23" cy="35" r="2" fill="white" opacity="0.8" />
  <circle cx="30" cy="27" r="2" fill="white" opacity="0.8" />
  <circle cx="40" cy="22" r="2" fill="white" opacity="0.8" />
</svg>
