<svg xmlns="http://www.w3.org/2000/svg" xmlns:xlink="http://www.w3.org/1999/xlink" version="1.1" x="0px" y="0px" viewBox="0 0 32 40" enable-background="new 0 0 32 32" xml:space="preserve"><g><g><path d="M30,1H2C1.45,1,1,1.45,1,2v13h2h2.5l2.7-3.6c0.23-0.31,0.63-0.46,1.01-0.38c0.38,0.08,0.68,0.38,0.77,0.76l1.21,5.48    l3.86-11.58c0.15-0.44,0.59-0.72,1.06-0.67C16.58,5.06,16.95,5.43,17,5.9l1.63,16.35l4.46-9.67c0.18-0.3799,0.59-0.61,1-0.58    c0.43,0.04,0.78,0.35,0.8799,0.76L25.78,16H29h2V2C31,1.45,30.55,1,30,1z"/><path d="M25,18c-0.46,0-0.86-0.31-0.97-0.76L23.72,16l-4.81,10.42C18.74,26.78,18.38,27,18,27c-0.05,0-0.11,0-0.17-0.01    c-0.44-0.08-0.78-0.44-0.83-0.89l-1.53-15.35l-3.52,10.57c-0.14,0.42-0.56,0.7-1,0.68c-0.45-0.02-0.83-0.34-0.93-0.78L8.5,14.34    L6.8,16.6C6.61,16.85,6.31,17,6,17H3H1v13c0,0.55,0.45,1,1,1h28c0.55,0,1-0.45,1-1V18h-2H25z"/></g></g><text x="0" y="47" fill="#000000" font-size="5px" font-weight="bold" font-family="'Helvetica Neue', Helvetica, Arial-Unicode, Arial, Sans-serif">Created by Icon Lauk</text><text x="0" y="52" fill="#000000" font-size="5px" font-weight="bold" font-family="'Helvetica Neue', Helvetica, Arial-Unicode, Arial, Sans-serif">from the Noun Project</text></svg>